<svg width="100" height="100" viewBox="0 0 100 100" fill="none" xmlns="http://www.w3.org/2000/svg">
<g clip-path="url(#clip0_231_36)">
<path fill-rule="evenodd" clip-rule="evenodd" d="M43.1639 10.719L55.4953 15.5139L18.6793 29.8295L5.78105 24.8141L42.0314 10.719C42.4098 10.5715 42.7852 10.5715 43.1639 10.719ZM81.5631 51.8938C91.9178 51.8938 100.312 60.2881 100.312 70.6428C100.312 80.9975 91.9176 89.3916 81.5631 89.3916C71.2086 89.3916 62.8139 80.9975 62.8139 70.6428C62.8139 60.2881 71.2084 51.8938 81.5631 51.8938ZM88.6621 62.0928L77.5557 73.1991L73.7658 68.4293C72.8336 67.2567 71.1268 67.0618 69.9541 67.994C68.7811 68.9262 68.5861 70.6329 69.5186 71.8057L75.0965 78.8245C76.0609 80.2061 78.0467 80.3952 79.2484 79.1932L92.5053 65.9362C93.567 64.8748 93.567 63.1542 92.5053 62.0928C91.444 61.0315 89.7234 61.0315 88.6621 62.0928ZM68.6633 20.634C56.3914 25.4063 44.1195 30.1784 31.8469 34.9495L42.5975 39.1295L79.4139 24.8141L68.6633 20.634ZM81.5631 27.3204L44.16 41.8639V85.1864L61.1717 78.5717C60.215 76.1135 59.6893 73.4399 59.6893 70.6428C59.6893 58.5624 69.4824 48.7692 81.5631 48.7692V27.3204ZM41.035 85.1862V41.8639L29.6984 37.4561V46.6042C29.6984 47.0463 29.1818 47.285 28.8455 46.9983L22.8289 41.8741L17.2021 43.6239C17.1247 43.6484 17.0425 43.6542 16.9624 43.6409C16.8822 43.6277 16.8064 43.5956 16.7409 43.5475C16.6755 43.4994 16.6223 43.4365 16.5858 43.3639C16.5492 43.2913 16.5304 43.2112 16.5307 43.1299V32.336L3.63184 27.3206V69.5737C3.63184 70.2313 4.01563 70.792 4.62871 71.0303L41.035 85.1862Z" fill="#B3A495"/>
</g>
<defs>
<clipPath id="clip0_231_36">
<rect width="100" height="100" rx="50" fill="white"/>
</clipPath>
</defs>
</svg>
