<svg width="100" height="100" viewBox="0 0 100 100" fill="none" xmlns="http://www.w3.org/2000/svg">
<path d="M89.9998 66.0168C89.9998 53.2834 79.6331 42.9167 66.8998 42.9167C54.1498 42.9167 43.7998 53.2834 43.7998 66.0168C43.7998 78.7668 54.1498 89.1334 66.8998 89.1334C79.6331 89.1334 89.9998 78.7668 89.9998 66.0168ZM66.8998 64.3567C68.674 64.3594 70.3748 65.0655 71.6292 66.3202C72.8836 67.5749 73.5893 69.2759 73.5915 71.0501C73.5915 74.1618 71.4465 76.7618 68.5648 77.5084V78.6651C68.5648 79.1071 68.3892 79.531 68.0766 79.8436C67.7641 80.1562 67.3402 80.3318 66.8981 80.3318C66.4561 80.3318 66.0322 80.1562 65.7196 79.8436C65.4071 79.531 65.2315 79.1071 65.2315 78.6651V77.5084C62.3498 76.7618 60.2048 74.1618 60.2048 71.0501C60.2048 70.6081 60.3804 70.1841 60.693 69.8716C61.0055 69.559 61.4294 69.3834 61.8715 69.3834C62.3135 69.3834 62.7374 69.559 63.05 69.8716C63.3625 70.1841 63.5381 70.6081 63.5381 71.0501C63.5381 72.9034 65.0448 74.4101 66.8981 74.4101C68.7515 74.4101 70.2581 72.9034 70.2581 71.0501C70.2581 69.1968 68.7515 67.6901 66.8981 67.6901C65.1235 67.6883 63.422 66.9826 62.1672 65.7277C60.9123 64.4728 60.2066 62.7714 60.2048 60.9967C60.2048 57.8851 62.3498 55.2851 65.2315 54.5401V53.3817C65.2315 52.9397 65.4071 52.5158 65.7196 52.2032C66.0322 51.8907 66.4561 51.7151 66.8981 51.7151C67.3402 51.7151 67.7641 51.8907 68.0766 52.2032C68.3892 52.5158 68.5648 52.9397 68.5648 53.3817V54.5401C71.4481 55.2851 73.5915 57.8851 73.5915 60.9967C73.5915 61.4388 73.4159 61.8627 73.1033 62.1753C72.7908 62.4878 72.3668 62.6634 71.9248 62.6634C71.4828 62.6634 71.0589 62.4878 70.7463 62.1753C70.4337 61.8627 70.2581 61.4388 70.2581 60.9967C70.2581 59.1467 68.7515 57.6368 66.8981 57.6368C65.0448 57.6368 63.5381 59.1451 63.5381 60.9967C63.5381 62.8501 65.0465 64.3567 66.8998 64.3567Z" fill="#B3A495"/>
<path d="M40.5 84.4667C40.7167 84.55 40.95 84.6 41.1833 84.6C41.4167 84.6 41.65 84.55 41.8667 84.4667C41.9667 84.4167 43.6167 83.6834 46.1333 82.35C42.5833 77.85 40.4667 72.1667 40.4667 66.0167C40.4667 51.4334 52.3167 39.5834 66.9 39.5834C68.7667 39.5834 70.6 39.7834 72.3667 40.15V22.5334C72.3667 21.6167 71.6167 20.8667 70.7 20.8667C66.1 20.8667 62.3667 17.1334 62.3667 12.5334C62.3667 11.6167 61.6167 10.8667 60.7 10.8667H21.6667C20.75 10.8667 20 11.6167 20 12.5334C20 17.1334 16.2667 20.8667 11.6667 20.8667C10.75 20.8667 10 21.6167 10 22.5334V53.4C10 70.6 39.2667 83.9 40.5 84.4667ZM28.75 44.1667C28.9042 44.0122 29.0873 43.8896 29.289 43.806C29.4906 43.7223 29.7067 43.6793 29.925 43.6793C30.1433 43.6793 30.3594 43.7223 30.561 43.806C30.7627 43.8896 30.9458 44.0122 31.1 44.1667L36.0167 49.0834L47.0833 38.0167C47.7333 37.3667 48.8 37.3667 49.45 38.0167C50.1 38.6667 50.1 39.7167 49.45 40.3834L37.2 52.6167C37.0448 52.7719 36.8602 52.8946 36.657 52.9776C36.4538 53.0606 36.2361 53.1022 36.0167 53.1C35.5833 53.1 35.15 52.9334 34.85 52.6167L28.75 46.5167C28.5955 46.3625 28.4729 46.1794 28.3893 45.9777C28.3056 45.7761 28.2626 45.56 28.2626 45.3417C28.2626 45.1234 28.3056 44.9073 28.3893 44.7057C28.4729 44.504 28.5955 44.3209 28.75 44.1667Z" fill="#B3A495"/>
</svg>
